<svg xmlns="http://www.w3.org/2000/svg" width="68" height="70.552" viewBox="0 0 68 70.552"><defs><style>.a,.c,.e,.f,.g{fill:#fff;}.b{fill:#f36a10;}.c,.e,.f,.h{stroke:#3d7cc9;}.d{fill:#f7be00;}.e{stroke-width:0.8px;}.f{stroke-width:0.5px;}.h{fill:#f7f9fc;stroke-width:2px;}.i,.k{stroke:none;}.j{fill:none;}.k{fill:#3d7cc9;}</style></defs><g transform="translate(-130.031 -983.302)"><path class="a" d="M0,0H68V70H0Z" transform="translate(130.031 983.302)"/><g transform="translate(118.684 -248.698)"><circle class="b" cx="1.869" cy="1.869" r="1.869" transform="translate(20.643 1244.789)"/><g class="c" transform="translate(46.36 1266.548)"><circle class="i" cx="2.492" cy="2.492" r="2.492"/><circle class="j" cx="2.492" cy="2.492" r="1.992"/></g><circle class="d" cx="1.869" cy="1.869" r="1.869" transform="translate(38.692 1252.463)"/><circle class="d" cx="1.869" cy="1.869" r="1.869" transform="translate(41.243 1281.877)"/><g class="e" transform="translate(25.326 1284.005)"><circle class="i" cx="2.492" cy="2.492" r="2.492"/><circle class="j" cx="2.492" cy="2.492" r="2.092"/></g><g class="f" transform="translate(32.326 1232)"><circle class="i" cx="2.492" cy="2.492" r="2.492"/><circle class="j" cx="2.492" cy="2.492" r="2.242"/></g><g transform="translate(11.348 1232.002)"><g class="g" transform="translate(0)"><path class="i" d="M 35.07691192626953 69.54971313476562 C 32.45368194580078 69.54971313476562 30.31952285766602 67.40096282958984 30.31952285766602 64.75978851318359 C 30.31952285766602 63.13200759887695 31.12811279296875 61.62970733642578 32.48250198364258 60.74111557006836 L 32.93395233154297 60.4449348449707 L 32.93395233154297 59.90500640869141 L 32.93395233154297 54.5062370300293 L 32.93395233154297 53.65291595458984 L 32.09125137329102 53.5186882019043 C 28.31725311279297 52.91755676269531 24.85033226013184 51.19317626953125 22.06529235839844 48.53196716308594 C 19.28828239440918 45.87844467163086 17.39884185791016 42.49636840820312 16.60123252868652 38.75135803222656 L 16.4326229095459 37.95966720581055 L 15.62317276000977 37.95966720581055 L 10.20123195648193 37.95966720581055 L 9.728462219238281 37.95966720581055 L 9.428421974182129 38.32502746582031 C 8.519692420959473 39.43158721923828 7.182282447814941 40.06623840332031 5.759122371673584 40.06623840332031 C 3.134932279586792 40.06623840332031 1.000002264976501 37.91683578491211 1.000002264976501 35.27485656738281 C 1.000002264976501 32.63287734985352 3.134932279586792 30.48347663879395 5.759122371673584 30.48347663879395 C 7.55399227142334 30.48347663879395 9.178562164306641 31.48432731628418 9.998842239379883 33.0954475402832 L 10.27698230743408 33.64172744750977 L 10.88999271392822 33.64172744750977 L 15.29118251800537 33.64172744750977 L 16.19258308410645 33.64172744750977 L 16.28582191467285 32.74515533447266 C 17.1729621887207 24.21396636962891 23.67333221435547 17.31902694702148 32.09354400634766 15.97789669036865 L 32.93625259399414 15.84367656707764 L 32.93625259399414 14.99034690856934 L 32.93625259399414 10.64615631103516 L 32.93625259399414 10.10578632354736 L 32.4842414855957 9.809676170349121 C 31.12804222106934 8.921206474304199 30.31837272644043 7.419046401977539 30.31837272644043 5.791386604309082 C 30.31837272644043 3.149406671524048 32.45304107666016 0.999996542930603 35.07691192626953 0.999996542930603 C 37.70046234130859 0.999996542930603 39.83488082885742 3.149406671524048 39.83488082885742 5.791386604309082 C 39.83488082885742 7.418696403503418 39.02586364746094 8.92099666595459 37.67075347900391 9.810036659240723 L 37.21930313110352 10.10621643066406 L 37.21930313110352 10.64615631103516 L 37.21930313110352 14.99034690856934 L 37.21930313110352 15.84362697601318 L 38.06196212768555 15.97788619995117 C 42.45176315307617 16.67731666564941 46.47738265991211 18.93923568725586 49.39726257324219 22.34697723388672 C 52.34854125976562 25.7913761138916 53.97388076782227 30.19506645202637 53.97388076782227 34.7468376159668 C 53.97388076782227 39.30038833618164 52.34853363037109 43.70513534545898 49.39724349975586 47.14968490600586 C 46.47770309448242 50.55719757080078 42.45207214355469 52.81908798217773 38.06193161010742 53.51869583129883 L 37.21930313110352 53.65297698974609 L 37.21930313110352 54.5062370300293 L 37.21930313110352 59.90356826782227 L 37.21930313110352 60.44330596923828 L 37.67049407958984 60.73951721191406 C 39.02720260620117 61.63020706176758 39.83718109130859 63.13310623168945 39.83718109130859 64.75978851318359 C 39.83718109130859 67.40096282958984 37.70173263549805 69.54971313476562 35.07691192626953 69.54971313476562 Z"/><path class="k" d="M 35.07690811157227 68.54971313476562 C 37.15032958984375 68.54971313476562 38.83718490600586 66.84955596923828 38.83718490600586 64.75978851318359 C 38.83718490600586 63.47108840942383 38.19587707519531 62.28067779541016 37.12167739868164 61.57544708251953 L 36.21931076049805 60.98302459716797 L 36.21931076049805 59.90355682373047 L 36.21931076049805 54.50623321533203 L 36.21931076049805 52.79971313476562 L 37.90456390380859 52.53115844726562 C 42.06067657470703 51.86884689331055 45.87250900268555 49.72660064697266 48.63786315917969 46.49904632568359 C 51.43398666381836 43.23558807373047 52.9738883972168 39.0619010925293 52.9738883972168 34.74683380126953 C 52.9738883972168 30.43354606628418 51.43399810791016 26.26093482971191 48.63788604736328 22.99763488769531 C 45.87220764160156 19.76984596252441 42.06039810180664 17.62756729125977 37.90462112426758 16.96543502807617 L 36.21931076049805 16.69691276550293 L 36.21931076049805 14.9903450012207 L 36.21931076049805 10.64615631103516 L 36.21931076049805 9.566289901733398 L 37.12219619750977 8.973923683166504 C 38.19462966918945 8.270334243774414 38.83488845825195 7.080589771270752 38.83488845825195 5.791378974914551 C 38.83488845825195 3.700800895690918 37.14906311035156 2.000000953674316 35.07690811157227 2.000000953674316 C 33.00444412231445 2.000000953674316 31.3183765411377 3.700800895690918 31.3183765411377 5.791378974914551 C 31.3183765411377 7.080678939819336 31.95907592773438 8.270145416259766 33.03224182128906 8.973190307617188 L 33.93625259399414 9.565423011779785 L 33.93625259399414 10.64615631103516 L 33.93625259399414 14.9903450012207 L 33.93625259399414 16.69700050354004 L 32.2508430480957 16.96544456481934 C 24.27690887451172 18.23550033569336 18.12085342407227 24.76687812805176 17.28045272827148 32.84859085083008 L 17.09398651123047 34.6417236328125 L 15.29117584228516 34.6417236328125 L 10.8899974822998 34.6417236328125 L 9.663975715637207 34.6417236328125 L 9.107708930969238 33.54916763305664 C 8.458975791931152 32.27500152587891 7.175875663757324 31.48347854614258 5.759119987487793 31.48347854614258 C 3.686331272125244 31.48347854614258 1.999997854232788 33.18428039550781 1.999997854232788 35.27485656738281 C 1.999997854232788 37.36543273925781 3.686331272125244 39.06623458862305 5.759119987487793 39.06623458862305 C 6.881831169128418 39.06623458862305 7.937564373016357 38.56475830078125 8.655619621276855 37.69038009643555 L 9.255698204040527 36.95966720581055 L 10.20123100280762 36.95966720581055 L 15.62316417694092 36.95966720581055 L 17.2420654296875 36.95966720581055 L 17.57928657531738 38.54304504394531 C 18.33487510681152 42.09072494506836 20.12499809265137 45.29483413696289 22.75614166259766 47.80896759033203 C 25.39365386962891 50.32920074462891 28.67607498168945 51.96210098266602 32.24855422973633 52.53113555908203 L 33.93395233154297 52.79959106445312 L 33.93395233154297 54.50623321533203 L 33.93395233154297 59.90501022338867 L 33.93395233154297 60.98487854003906 L 33.03106307983398 61.57724380493164 C 31.95934295654297 62.28036880493164 31.31952095031738 63.47010040283203 31.31952095031738 64.75978851318359 C 31.31952095031738 66.84955596923828 33.00507736206055 68.54971313476562 35.07690811157227 68.54971313476562 M 35.07690811157227 70.54971313476562 C 31.89648628234863 70.54971313476562 29.31952095031738 67.95670318603516 29.31952095031738 64.75978851318359 C 29.31952095031738 62.72558975219727 30.35929870605469 60.93810272216797 31.9339542388916 59.90501022338867 L 31.9339542388916 54.50623321533203 C 23.81516456604004 53.21305847167969 17.33096504211426 46.97822189331055 15.62316417694092 38.95966720581055 L 10.20123100280762 38.95966720581055 C 9.144742012023926 40.24615478515625 7.547608852386475 41.06623458862305 5.759119987487793 41.06623458862305 C 2.578119993209839 41.06623458862305 -2.153184595954372e-06 38.4734992980957 -2.153184595954372e-06 35.27485656738281 C -2.153184595954372e-06 32.07621383666992 2.578119993209839 29.48347854614258 5.759119987487793 29.48347854614258 C 7.996597766876221 29.48347854614258 9.935520172119141 30.76705741882324 10.8899974822998 32.6417236328125 L 15.29117584228516 32.6417236328125 C 16.22836494445801 23.62932395935059 23.11832046508789 16.39482307434082 31.93625259399414 14.9903450012207 L 31.93625259399414 10.64615631103516 C 30.35929870605469 9.613067626953125 29.3183765411377 7.822678565979004 29.3183765411377 5.791378974914551 C 29.3183765411377 2.593034267425537 31.89648628234863 1.011827293950773e-06 35.07690811157227 1.011827293950773e-06 C 38.25906372070312 1.011827293950773e-06 40.83488845825195 2.593034267425537 40.83488845825195 5.791378974914551 C 40.83488845825195 7.822678565979004 39.79395294189453 9.613067626953125 38.21931076049805 10.64615631103516 L 38.21931076049805 14.9903450012207 C 47.71274185180664 16.5029239654541 54.9738883972168 24.77486801147461 54.9738883972168 34.74683380126953 C 54.9738883972168 44.7231559753418 47.71274185180664 52.99336624145508 38.21931076049805 54.50623321533203 L 38.21931076049805 59.90355682373047 C 39.79510879516602 60.93810272216797 40.83718490600586 62.72558975219727 40.83718490600586 64.75978851318359 C 40.83718490600586 67.95670318603516 38.25906372070312 70.54971313476562 35.07690811157227 70.54971313476562 Z"/></g></g><circle class="b" cx="1.869" cy="1.869" r="1.869" transform="translate(32.316 1264.415)"/><g class="f" transform="translate(39.153 1274.226)"><circle class="i" cx="2.492" cy="2.492" r="2.492"/><circle class="j" cx="2.492" cy="2.492" r="2.242"/></g><g transform="translate(48.612 1260.62)"><path class="h" d="M456.462,121.26a29.916,29.916,0,0,1,13.929,3.712,1,1,0,0,1,.553.786c.743,5.777.586,11.531-2.069,16.862-2.587,5.2-6.743,8.417-11.87,10.822a1,1,0,0,1-.876,0c-5.127-2.4-9.282-5.626-11.87-10.822-2.653-5.328-2.813-11.086-2.069-16.862a1,1,0,0,1,.536-.777,28.022,28.022,0,0,1,13.736-3.721Z" transform="translate(-441.805 -121.26)"/><path class="b" d="M577.1,269.3l2.738,2.688,5.7-6.956,2.353,1.925-7.806,9.525-5.113-5.02L577.1,269.3Z" transform="translate(-566.487 -255.044)"/></g><circle class="b" cx="1.869" cy="1.869" r="1.869" transform="translate(65.833 1246.721) rotate(90)"/><g class="e" transform="translate(42.808 1253.269)"><circle class="i" cx="2.492" cy="2.492" r="2.492"/><circle class="j" cx="2.492" cy="2.492" r="2.092"/></g></g></g></svg>