<svg xmlns="http://www.w3.org/2000/svg" width="68" height="70" viewBox="0 0 68 70"><defs><style>.a{fill:#fff;}.b{fill:#3d7cc9;}.c{fill:#ff8300;}</style></defs><g transform="translate(-0.031)"><path class="a" d="M0,0H68V70H0Z" transform="translate(0.031)"/><g transform="translate(7.031 -0.402)"><g transform="translate(0 0.402)"><path class="b" d="M75.274,541.375c-6.15,0-11.572-4.879-13.814-12.43l1.707-.506c2.012,6.776,6.764,11.155,12.106,11.155,4.614,0,8.935-3.393,11.277-8.854l1.637.7C85.561,537.569,80.612,541.375,75.274,541.375Z" transform="translate(-48.253 -499.762)"/><path class="b" d="M78.574,500.918c-1.807,2.354-6.256,7.577-11.474,9.506-5.319,1.966-7.9,6.5-7.74,7.368,1,3.98.945,6.292-.151,6.871a1.258,1.258,0,0,1-.594.151,2.918,2.918,0,0,1-1.867-1.168c-2.032-2.286-4.376-9.571-3.576-16.242.515-4.3,2.305-7.62,5.177-9.608q.8-.557,1.588-1.013l1.071,1.438q-.809.463-1.645,1.039c-2.476,1.714-3.964,4.525-4.422,8.356-.719,5.993,1.413,12.905,3.138,14.847.078.087.148.161.21.225a20.271,20.271,0,0,0-.657-4.466c-.547-2.188,3.281-7.409,8.851-9.468,4.432-1.638,8.415-6.081,10.309-8.458Z" transform="translate(-44.82 -486.9)"/><path class="b" d="M95.9,500.258a8.12,8.12,0,0,1,4.176,2.51c4.046,4.486,3.541,13,2.912,15.429-.288,1.112-2.271,5.551-3.936,5.551a.9.9,0,0,1-.17-.016c-.5-.1-1.062-.5-.886-1.9.288-2.3-4.71-9.273-7.32-11.884a7.043,7.043,0,0,1-2.184-4.49l1.781.028a5.381,5.381,0,0,0,1.662,3.2c1.56,1.56,7.112,8.3,7.784,12.253a12.668,12.668,0,0,0,1.545-3.191c.489-1.885,1.084-9.8-2.51-13.79a6.444,6.444,0,0,0-3.717-2.056Z" transform="translate(-59.236 -488.312)"/><g transform="translate(11.943)"><path class="c" d="M65.752,495.9a.921.921,0,0,1-.213-.026.891.891,0,0,1-.555-.413l-5.53-9.377a.891.891,0,0,1,.194-1.135c.126-.105,12.7-10.4,28.221-.551a.891.891,0,0,1,.334,1.117l-4.328,9.618a.891.891,0,0,1-1.286.388,16,16,0,0,0-16.368.243A.885.885,0,0,1,65.752,495.9Zm-4.362-10.04,4.677,7.93a17.7,17.7,0,0,1,16.58-.265L86.26,485.5C73.853,478.046,63.9,484.061,61.39,485.862Z" transform="translate(-59.331 -480.137)"/></g><g transform="translate(23.654 3.573)"><rect class="c" width="2.084" height="5.771" transform="translate(1.843)"/><rect class="c" width="5.771" height="2.084" transform="translate(0 1.843)"/></g><g transform="translate(19.837 39.039)"><rect class="b" width="1.781" height="5.951"/><rect class="b" width="1.781" height="4.869" transform="translate(11.722)"/></g><path class="b" d="M91.5,568.773h-51.4a.89.89,0,0,1-.716-1.42,36.347,36.347,0,0,0,2.472-4.2c2.348-4.394,5.009-9.374,9.731-9.664,2.185-.136,14.381.224,14.9.239.417-.01,11.312-.241,13.469-.241,4.379,0,7.218,5.129,9.722,9.655a41.128,41.128,0,0,0,2.535,4.213.89.89,0,0,1-.716,1.42Zm-49.739-1.781H89.836c-.561-.91-1.126-1.931-1.712-2.99-2.266-4.094-4.835-8.736-8.164-8.736-2.137,0-13.363.239-13.476.241-.171,0-12.681-.37-14.782-.243-3.73.23-6.141,4.744-8.27,8.726C42.865,565.051,42.317,566.074,41.762,566.992Z" transform="translate(-39.215 -509.927)"/></g></g></g></svg>