<svg xmlns="http://www.w3.org/2000/svg" width="68" height="70.21" viewBox="0 0 68 70.21"><defs><style>.a{fill:#fff;}.b,.c,.d{fill:#3d7cc9;}.b,.d{stroke:#feffff;}.b{stroke-width:0.2px;}.c{stroke:rgba(0,0,0,0);}.d{stroke-width:0.4px;}.e,.f{fill:none;}.e{stroke:#ff8300;stroke-width:2px;}.f{stroke:#3d7cc9;stroke-width:1.5px;}</style></defs><g transform="translate(-131 -1174.79)"><path class="a" d="M0,0H68V70H0Z" transform="translate(131 1175)"/><g transform="translate(119.87 -462.01)"><path class="b" d="M1287.39,291.975h-20.623a1.1,1.1,0,1,1,0-2.21h20.623a1.1,1.1,0,1,1,0,2.21Z" transform="translate(-1232.29 1392.95)"/><path class="c" d="M1286.828,278.815a1.11,1.11,0,0,1-1.006-1.564l2.537-5.594a1.106,1.106,0,0,1,2.015.914l-2.537,5.594A1.108,1.108,0,0,1,1286.828,278.815Z" transform="translate(-1246.367 1406.112)"/><path class="c" d="M1309.715,278.814a1.108,1.108,0,0,1-1-.641l-2.6-5.594a1.106,1.106,0,0,1,2.006-.932l2.6,5.594a1.105,1.105,0,0,1-.537,1.468A1.079,1.079,0,0,1,1309.715,278.814Z" transform="translate(-1260.599 1406.113)"/><path class="d" d="M1264.077,191.292h-55.1a1.162,1.162,0,0,1-1.106-1.213V150.1a1.162,1.162,0,0,1,1.106-1.213h55.1a1.162,1.162,0,0,1,1.106,1.213v39.982A1.162,1.162,0,0,1,1264.077,191.292Zm-54-2.425h52.891V151.31H1210.08Z" transform="translate(-1191.738 1488.115)"/><path class="e" d="M47.348,1778.707h6.947L57,1785.861l4.877-20.308,5.1,20.308,2.585-7.579h3.322l2.854-16.152L78,1778.282H88.4" transform="translate(-23.093 -118)"/><line class="f" x2="54.656" transform="translate(17.677 1673.619)"/></g></g></svg>