<svg xmlns="http://www.w3.org/2000/svg" width="68" height="70" viewBox="0 0 68 70"><defs><style>.a{fill:#fff;}.b,.c{fill:none;stroke-miterlimit:10;stroke-width:2px;}.b{stroke:#f36a10;}.c{stroke:#3d7cc9;}</style></defs><g transform="translate(-795 -1175)"><path class="a" d="M0,0H68V70H0Z" transform="translate(795 1175)"/><g transform="translate(-1 -11)"><g transform="translate(800 1187)"><path class="b" d="M335.18,199.484a6.123,6.123,0,0,0-4.75-2.226,9.364,9.364,0,0,0-5.954,2.467,9.389,9.389,0,0,0-5.986-2.468,6.96,6.96,0,0,0-6.374,5.237,9.054,9.054,0,0,0,1.793,8.243,27.557,27.557,0,0,0,5.356,4.661c1.7,1.24,3.859,2.413,5.206,3.908h0c1.352-1.5,3.591-2.737,5.219-3.932.72-.528,1.463-1.073,2.177-1.64,2.305-1.83,4.73-4.149,5.22-7.468A8.709,8.709,0,0,0,335.18,199.484Z" transform="translate(-293.08 -197.257)"/><rect class="c" width="7.83" height="14.681" transform="translate(0 29.348)"/><g transform="translate(11.61 28.471)"><path class="c" d="M493.945,389.7l6.142-5.591a2.432,2.432,0,0,0-1.519-4.222h0a2.59,2.59,0,0,0-1.963.662l-8.421,7.768" transform="translate(-452.498 -378.743)"/><path class="c" d="M450.79,386.5l5.037-4.585a2.432,2.432,0,0,0-1.518-4.222h0a2.589,2.589,0,0,0-1.963.662l-8.815,8.132" transform="translate(-415.084 -376.906)"/><path class="c" d="M414.151,384.207l5.4-4.919a2.432,2.432,0,0,0-1.519-4.222h0a2.589,2.589,0,0,0-1.963.662l-7.522,6.939" transform="translate(-385.776 -374.701)"/><path class="c" d="M385.741,380.645l3.9-3.551a2.432,2.432,0,0,0-1.519-4.222h0a2.589,2.589,0,0,0-1.963.662l-4.409,4.067" transform="translate(-363.321 -372.863)"/><path class="c" d="M268.072,469.992s13.943,5.933,20.266,5.351,15.889-6.514,15.889-6.514" transform="translate(-268.072 -453.27)"/><path class="c" d="M268.072,388.017v-8.249s12.322-2.56,20.428,4.836c7.293,6.654,17.672.142,21.563,5.973l1.135,1.707s-11.187,3.556-19.455,1.28" transform="translate(-268.072 -378.289)"/></g></g></g></g></svg>